<svg xmlns="http://www.w3.org/2000/svg" xmlns:xlink="http://www.w3.org/1999/xlink" version="1.1" width="256" height="256" viewBox="0 0 256 256" xml:space="preserve">

<defs>
</defs>
<g style="stroke: none; stroke-width: 0; stroke-dasharray: none; stroke-linecap: butt; stroke-linejoin: miter; stroke-miterlimit: 10; fill: none; fill-rule: nonzero; opacity: 1;" transform="translate(1.4065934065934016 1.4065934065934016) scale(2.81 2.81)" >
	<path d="M 31.336 8.741 c -0.078 -1.71 -0.35 -2.878 -0.747 -3.9 c -0.403 -1.072 -1.036 -2.043 -1.853 -2.846 c -0.802 -0.817 -1.774 -1.45 -2.846 -1.854 c -1.022 -0.397 -2.19 -0.668 -3.9 -0.746 c -1.713 -0.078 -2.261 -0.097 -6.624 -0.097 s -4.911 0.019 -6.624 0.097 c -1.71 0.078 -2.878 0.35 -3.9 0.747 C 3.769 0.546 2.798 1.178 1.996 1.996 c -0.817 0.802 -1.45 1.773 -1.854 2.846 c -0.397 1.022 -0.668 2.19 -0.746 3.9 c -0.079 1.714 -0.097 2.261 -0.097 6.625 c 0 4.364 0.019 4.911 0.097 6.625 c 0.078 1.71 0.35 2.878 0.747 3.9 c 0.403 1.072 1.036 2.043 1.853 2.846 c 0.802 0.817 1.774 1.45 2.846 1.853 c 1.022 0.397 2.19 0.669 3.9 0.747 c 1.713 0.078 2.261 0.097 6.624 0.097 s 4.911 -0.018 6.624 -0.097 c 1.71 -0.078 2.878 -0.35 3.9 -0.747 c 2.158 -0.834 3.864 -2.541 4.699 -4.699 c 0.397 -1.022 0.669 -2.19 0.747 -3.9 c 0.078 -1.714 0.097 -2.261 0.097 -6.625 S 31.414 10.455 31.336 8.741 z M 28.444 21.858 c -0.071 1.567 -0.333 2.417 -0.553 2.983 c -0.541 1.401 -1.648 2.509 -3.049 3.049 c -0.566 0.22 -1.417 0.482 -2.983 0.553 c -1.694 0.077 -2.202 0.094 -6.492 0.094 c -4.291 0 -4.799 -0.016 -6.492 -0.094 c -1.566 -0.071 -2.417 -0.333 -2.983 -0.553 c -0.698 -0.258 -1.329 -0.668 -1.847 -1.202 c -0.534 -0.518 -0.944 -1.149 -1.202 -1.847 c -0.22 -0.566 -0.482 -1.417 -0.553 -2.983 c -0.077 -1.694 -0.094 -2.202 -0.094 -6.492 s 0.016 -4.798 0.094 -6.492 C 2.359 7.306 2.62 6.456 2.84 5.89 C 3.098 5.192 3.509 4.56 4.042 4.042 C 4.561 3.508 5.192 3.098 5.89 2.84 c 0.566 -0.22 1.417 -0.482 2.983 -0.553 c 1.694 -0.077 2.202 -0.093 6.492 -0.093 h 0 c 4.29 0 4.798 0.016 6.492 0.094 c 1.567 0.071 2.417 0.333 2.983 0.553 c 0.698 0.258 1.329 0.668 1.847 1.202 c 0.534 0.518 0.944 1.15 1.202 1.848 c 0.22 0.566 0.482 1.417 0.553 2.983 c 0.077 1.694 0.094 2.202 0.094 6.492 S 28.521 20.164 28.444 21.858 z" style="stroke: none; stroke-width: 1; stroke-dasharray: none; stroke-linecap: butt; stroke-linejoin: miter; stroke-miterlimit: 10; fill: rgb(255,255,255); fill-rule: nonzero; opacity: 1;" transform=" matrix(2.8008 0 0 2.8008 1.9639999999999986 1.9639999999999702) " stroke-linecap="round" />
	<path d="M 15.365 7.115 c -4.557 0 -8.25 3.694 -8.25 8.25 s 3.694 8.251 8.25 8.251 c 4.557 0 8.251 -3.694 8.251 -8.251 S 19.922 7.115 15.365 7.115 z M 15.365 20.721 c -2.957 0 -5.355 -2.398 -5.355 -5.356 s 2.398 -5.356 5.356 -5.356 c 2.958 0 5.356 2.398 5.356 5.356 S 18.323 20.721 15.365 20.721 z" style="stroke: none; stroke-width: 1; stroke-dasharray: none; stroke-linecap: butt; stroke-linejoin: miter; stroke-miterlimit: 10; fill: rgb(255,255,255); fill-rule: nonzero; opacity: 1;" transform=" matrix(2.8008 0 0 2.8008 1.9639999999999986 1.9639999999999702) " stroke-linecap="round" />
	<path d="M 25.87 6.789 c 0 1.065 -0.863 1.928 -1.928 1.928 c -1.065 0 -1.928 -0.863 -1.928 -1.928 c 0 -1.065 0.863 -1.928 1.928 -1.928 S 25.87 5.724 25.87 6.789 z" style="stroke: none; stroke-width: 1; stroke-dasharray: none; stroke-linecap: butt; stroke-linejoin: miter; stroke-miterlimit: 10; fill: rgb(255,255,255); fill-rule: nonzero; opacity: 1;" transform=" matrix(2.8008 0 0 2.8008 1.9639999999999986 1.9639999999999702) " stroke-linecap="round" />
</g>
</svg>