<svg xmlns="http://www.w3.org/2000/svg" xmlns:xlink="http://www.w3.org/1999/xlink" version="1.1" width="256" height="256" viewBox="0 0 256 256" xml:space="preserve">

<defs>
</defs>
<g style="stroke: none; stroke-width: 0; stroke-dasharray: none; stroke-linecap: butt; stroke-linejoin: miter; stroke-miterlimit: 10; fill: none; fill-rule: nonzero; opacity: 1;" transform="translate(1.4065934065934016 1.4065934065934016) scale(2.81 2.81)" >
	<path d="M 19.16 90.005 c -5.119 0 -9.932 -1.993 -13.552 -5.614 c -7.472 -7.472 -7.472 -19.631 0 -27.103 l 20.562 -20.563 c 7.472 -7.471 19.63 -7.472 27.103 0 c 1.563 1.563 1.563 4.095 0 5.658 c -1.561 1.562 -4.096 1.562 -5.657 0 c -4.353 -4.353 -11.436 -4.354 -15.789 0 L 11.266 62.944 c -4.353 4.353 -4.353 11.437 0 15.79 c 2.109 2.109 4.912 3.27 7.894 3.27 c 2.982 0 5.786 -1.161 7.894 -3.27 l 15.987 -15.986 c 1.563 -1.563 4.095 -1.563 5.657 0 c 1.563 1.562 1.563 4.095 0 5.657 L 32.713 84.391 C 29.093 88.011 24.28 90.005 19.16 90.005 z" style="stroke: none; stroke-width: 1; stroke-dasharray: none; stroke-linecap: butt; stroke-linejoin: miter; stroke-miterlimit: 10; fill: rgb(255,255,255); fill-rule: nonzero; opacity: 1;" transform=" matrix(1 0 0 1 0 0) " stroke-linecap="round" />
	<path d="M 50.277 58.888 c -5.119 0 -9.932 -1.993 -13.552 -5.614 c -1.562 -1.562 -1.562 -4.095 0 -5.657 c 1.563 -1.563 4.095 -1.563 5.658 0 c 2.109 2.109 4.913 3.27 7.894 3.27 c 2.982 0 5.786 -1.161 7.893 -3.27 l 20.564 -20.563 c 2.109 -2.109 3.27 -4.912 3.27 -7.894 c 0 -2.982 -1.161 -5.785 -3.27 -7.894 c -4.353 -4.352 -11.435 -4.354 -15.79 0 L 46.958 27.253 c -1.561 1.562 -4.095 1.562 -5.657 0 c -1.562 -1.562 -1.562 -4.095 0 -5.658 L 57.287 5.609 c 7.471 -7.471 19.632 -7.473 27.103 0 c 3.62 3.62 5.614 8.433 5.614 13.552 c 0 5.12 -1.993 9.932 -5.614 13.552 L 63.828 53.274 C 60.21 56.895 55.397 58.888 50.277 58.888 z" style="stroke: none; stroke-width: 1; stroke-dasharray: none; stroke-linecap: butt; stroke-linejoin: miter; stroke-miterlimit: 10; fill: rgb(255,255,255); fill-rule: nonzero; opacity: 1;" transform=" matrix(1 0 0 1 0 0) " stroke-linecap="round" />
</g>
</svg>